<?xml version="1.0" standalone="no"?>
<!DOCTYPE svg PUBLIC "-//W3C//DTD SVG 20010904//EN"
 "http://www.w3.org/TR/2001/REC-SVG-20010904/DTD/svg10.dtd">
<svg version="1.0" xmlns="http://www.w3.org/2000/svg"
 width="859.000000pt" height="117.000000pt" viewBox="0 0 859.000000 117.000000"
 preserveAspectRatio="xMidYMid meet">
<metadata>
Created by potrace 1.15, written by Peter Selinger 2001-2017
</metadata>
<g transform="translate(0.000000,117.000000) scale(0.100000,-0.100000)"
fill="#000000" stroke="none">
<path d="M155 1071 c-62 -26 -81 -110 -34 -156 24 -24 145 -74 181 -75 9 0 40
-5 68 -11 40 -9 53 -16 61 -36 5 -14 18 -37 28 -52 25 -35 55 -145 55 -201 0
-54 -22 -138 -43 -163 -24 -29 -20 -91 8 -121 67 -71 178 -20 202 93 6 31 18
75 27 99 20 57 10 156 -26 265 l-29 84 111 6 c119 6 219 28 250 55 10 10 25
32 33 49 11 28 11 38 -1 67 -17 41 -46 61 -105 75 -49 11 -94 -2 -120 -32 -16
-20 -95 -22 -270 -7 -144 13 -220 26 -293 51 -63 21 -73 22 -103 10z"/>
<path d="M1785 1061 c-34 -14 -58 -50 -59 -86 -1 -19 -6 -35 -12 -35 -18 0
-53 -45 -60 -76 -3 -17 1 -58 9 -90 24 -93 40 -192 32 -203 -3 -6 -12 -11 -20
-11 -23 0 -65 -59 -65 -92 0 -37 43 -121 84 -166 l31 -33 -37 15 c-60 25 -122
-7 -134 -70 -9 -49 12 -98 68 -159 l50 -55 78 0 c73 0 81 2 122 33 62 47 72
73 60 160 -5 40 -8 74 -6 76 2 3 14 -5 27 -17 13 -12 26 -22 30 -22 3 0 34
-20 69 -44 74 -50 154 -80 192 -70 35 8 76 59 76 93 0 37 -32 76 -79 98 -33
16 -130 109 -120 116 2 2 23 15 45 29 23 15 58 47 79 72 30 37 39 58 48 118
19 117 16 188 -10 224 -12 16 -25 42 -28 57 -18 68 -124 117 -255 117 -42 0
-99 7 -126 15 -55 17 -61 17 -89 6z m270 -226 c11 -2 28 -20 39 -39 17 -32 17
-40 6 -100 -15 -71 -24 -80 -95 -90 -22 -3 -54 -9 -71 -12 -29 -5 -32 -3 -37
23 -23 128 -38 203 -43 217 -5 14 4 15 87 10 52 -3 103 -7 114 -9z"/>
<path d="M4495 1061 c-44 -19 -60 -50 -58 -109 2 -44 -2 -61 -17 -77 -26 -28
-40 -69 -41 -118 0 -23 -8 -66 -17 -96 l-17 -55 -28 33 c-15 18 -27 38 -27 46
0 7 -16 27 -35 44 -46 40 -84 41 -127 3 -36 -33 -36 -33 -23 -214 5 -76 5
-118 -2 -118 -5 0 -26 53 -47 118 -74 235 -113 322 -169 387 -29 34 -40 40
-75 40 -79 0 -121 -73 -83 -143 47 -87 80 -162 104 -232 31 -94 84 -267 92
-301 4 -15 24 -43 45 -64 30 -29 48 -38 84 -42 76 -9 196 42 196 83 0 6 6 17
14 23 8 7 18 26 21 42 l7 29 44 -55 c33 -40 53 -56 78 -61 121 -22 185 84 155
258 -15 89 -15 112 1 208 8 49 21 86 37 107 27 38 48 137 39 187 -3 18 -17 43
-30 55 -26 25 -89 36 -121 22z"/>
<path d="M2560 1044 c-22 -9 -60 -46 -60 -58 0 -6 -16 -11 -35 -12 -65 -1
-108 -68 -85 -129 6 -16 33 -52 59 -80 48 -50 56 -69 90 -200 6 -22 13 -70 17
-106 l6 -66 -38 -19 c-22 -11 -45 -32 -53 -48 -12 -26 -11 -37 8 -97 32 -101
100 -152 160 -120 12 7 32 5 62 -6 64 -22 217 -14 283 16 121 53 195 120 250
224 44 84 45 117 6 190 -16 31 -30 66 -30 78 0 32 -59 201 -79 224 -9 11 -25
37 -36 58 -23 47 -106 115 -148 122 -37 6 -213 24 -302 30 -33 3 -67 2 -75 -1z
m347 -237 c26 -27 83 -157 92 -214 5 -34 19 -80 31 -103 21 -41 21 -44 5 -80
-16 -35 -60 -72 -133 -109 -13 -7 -52 -11 -90 -9 l-67 3 3 85 c3 62 -3 111
-18 180 -13 52 -26 115 -30 141 -5 25 -21 67 -37 95 l-30 49 131 -13 c72 -8
136 -19 143 -25z"/>
<path d="M6845 1041 c-37 -16 -60 -51 -60 -92 0 -34 7 -46 43 -79 23 -22 42
-45 42 -52 0 -7 14 -31 30 -52 17 -22 30 -45 30 -52 0 -6 7 -18 16 -25 46 -38
98 -165 108 -264 3 -33 9 -75 12 -92 l6 -33 -33 18 c-29 14 -63 17 -219 17
-102 0 -216 -3 -254 -5 l-69 -5 -13 40 c-18 50 -49 82 -85 90 -21 5 -31 14
-35 33 -7 35 -42 186 -55 237 -5 22 -16 74 -24 115 -19 93 -46 125 -105 125
-30 0 -47 -7 -66 -26 -38 -38 -41 -89 -11 -210 26 -106 51 -216 62 -279 4 -19
17 -51 29 -70 l23 -35 -49 0 c-52 0 -68 12 -68 52 0 39 -40 132 -76 176 -18
23 -45 59 -59 80 -14 20 -47 62 -74 91 -27 30 -65 78 -84 108 -58 90 -78 103
-158 103 -93 0 -114 -20 -134 -130 -8 -44 -24 -123 -35 -175 -12 -52 -27 -133
-35 -180 -7 -47 -21 -100 -30 -119 -15 -28 -16 -39 -6 -73 7 -22 27 -56 45
-76 44 -47 91 -50 136 -7 16 16 30 35 30 43 0 20 49 7 140 -36 74 -35 125 -44
167 -29 14 5 25 3 32 -5 60 -74 77 -89 114 -100 23 -6 58 -24 78 -40 72 -55
172 -23 185 60 l6 37 131 2 c501 8 568 11 586 27 17 15 19 15 32 0 30 -36 93
-53 240 -65 237 -18 224 -18 261 19 27 27 33 40 33 77 0 40 -5 50 -47 92 -41
41 -54 48 -87 48 -24 0 -47 -8 -59 -18 -16 -14 -34 -17 -88 -15 l-69 3 -7 40
c-3 22 -9 58 -14 79 l-7 39 39 -7 c21 -3 78 -14 126 -23 47 -8 102 -13 120 -9
78 14 111 108 57 162 -22 22 -48 29 -170 51 -79 14 -161 26 -182 25 -35 0 -40
3 -53 33 -7 19 -18 36 -23 40 -5 3 -17 19 -25 36 -14 29 -14 30 2 23 16 -7
262 -49 347 -60 52 -6 85 12 108 58 16 32 16 40 4 70 -8 18 -21 39 -30 46 -15
13 -126 36 -287 62 -41 6 -97 18 -125 26 -41 11 -185 43 -270 60 -11 2 -29 0
-40 -5z m-1116 -405 c26 -27 32 -40 27 -59 -3 -14 -2 -45 3 -70 l8 -46 -38 -6
c-43 -7 -79 8 -79 33 0 10 7 44 15 75 8 32 15 69 15 82 0 33 10 31 49 -9z"/>
<path d="M7705 1041 c-64 -28 -79 -103 -32 -165 43 -55 72 -66 182 -66 l95 0
14 -32 c23 -56 47 -158 61 -268 8 -58 19 -124 23 -147 7 -32 6 -43 -3 -43 -25
0 -60 -51 -60 -89 0 -74 92 -152 158 -136 32 8 49 27 82 90 34 63 41 124 22
205 -8 36 -18 97 -22 135 -4 39 -15 103 -26 143 -26 98 -25 116 4 109 63 -16
196 -29 229 -23 45 8 88 55 88 97 0 17 -11 41 -28 60 -25 28 -36 32 -107 39
-44 5 -87 11 -95 14 -30 11 -232 36 -352 42 -81 4 -128 11 -139 20 -20 18 -69
26 -94 15z"/>
<path d="M1271 944 c-17 -14 -31 -32 -31 -40 0 -20 -10 -18 -37 8 -35 33 -95
31 -130 -4 -28 -29 -33 -56 -49 -286 -7 -90 11 -178 46 -237 10 -16 31 -61 46
-100 48 -123 109 -165 240 -165 116 0 155 49 170 215 5 60 3 78 -15 117 -12
26 -28 78 -36 115 -9 37 -22 98 -30 135 -8 37 -16 99 -18 139 -3 67 -6 74 -35
101 -41 36 -80 36 -121 2z"/>
<path d="M4715 921 c-64 -28 -79 -104 -32 -161 16 -18 45 -65 64 -104 32 -62
37 -83 43 -171 9 -125 40 -232 77 -266 39 -35 102 -57 203 -70 116 -15 151
-24 196 -56 57 -39 107 -37 146 6 26 29 29 40 25 73 -7 54 -29 75 -127 121
-69 33 -101 42 -174 48 -49 5 -97 11 -106 14 -24 8 -31 33 -39 157 -8 102 -10
113 -58 210 -79 159 -153 227 -218 199z"/>
</g>
</svg>
